STARTFONT 2.1
FONT -sun-chevara-medium-r-normal--17-170-75-75-p-149-adobe-fontspecific
SIZE 17 75 75
FONTBOUNDINGBOX 36 23 -5 -5

STARTPROPERTIES 28
FOUNDRY "sun"
FAMILY_NAME "chevara"
WEIGHT_NAME "medium"
SLANT "r"
SETWIDTH_NAME "normal"
ADD_STYLE_NAME ""
PIXEL_SIZE 18
POINT_SIZE 170
RESOLUTION_X 75
RESOLUTION_Y 75
SPACING "p"
AVERAGE_WIDTH 149
CHARSET_REGISTRY "adobe"
CHARSET_ENCODING "fontspecific"
COPYRIGHT "© 1999 Sun Microsystems, Inc."
RAW_PIXELSIZE 1000
RAW_POINTSIZE 964
RAW_ASCENT 1047
RAW_DESCENT 285
RAW_AVERAGE_WIDTH 8445
FACE_NAME "ChevaraNormal"
_XMBDFED_INFO "Edited with xmbdfed 2.4."
WEIGHT 10
X_HEIGHT -1
QUAD_WIDTH 15
DEFAULT_CHAR 4
FONT_DESCENT 5
FONT_ASCENT 18
ENDPROPERTIES

CHARS 195

STARTCHAR char32
ENCODING 32
SWIDTH 45 0
DWIDTH 9 0
BBX 0 0 0 0
BITMAP
ENDCHAR

STARTCHAR char33
ENCODING 33
SWIDTH 35 0
DWIDTH 7 0
BBX 4 12 3 0
BITMAP
60
F0
F0
90
60
60
60
20
20
F0
90
70
ENDCHAR

STARTCHAR char34
ENCODING 34
SWIDTH 50 0
DWIDTH 10 0
BBX 8 5 2 8
BITMAP
66
FF
5F
32
66
ENDCHAR

STARTCHAR char35
ENCODING 35
SWIDTH 4 0
DWIDTH 11 0
BBX 8 13 1 0
BITMAP
12
32
22
22
FF
24
24
24
FF
44
44
4C
48
ENDCHAR

STARTCHAR char36
ENCODING 36
SWIDTH 44 0
DWIDTH 19 0
BBX 16 16 4 -2
BITMAP
0140
0FC4
3174
614C
F944
9F44
F7FC
5FFE
3942
47FF
615F
7145
7D46
E3FC
0140
0140
ENDCHAR

STARTCHAR char37
ENCODING 37
SWIDTH 34 0
DWIDTH 27 0
BBX 23 12 5 0
BITMAP
7F0100
638100
E38200
E38400
A288F8
63998C
73138A
1E228E
00438E
00C38E
00818C
0100F8
ENDCHAR

STARTCHAR char38
ENCODING 38
SWIDTH 44 0
DWIDTH 19 0
BBX 16 12 5 0
BITMAP
1FC0
1C40
2E40
1EC0
173F
1BA4
64D8
E3D0
F3E0
F1F0
99B0
7E7E
ENDCHAR

STARTCHAR char39
ENCODING 39
SWIDTH 25 0
DWIDTH 5 0
BBX 4 5 1 8
BITMAP
20
40
A0
D0
60
ENDCHAR

STARTCHAR char40
ENCODING 40
SWIDTH 40 0
DWIDTH 8 0
BBX 7 13 2 0
BITMAP
06
1C
28
78
58
F8
F8
B8
F8
78
38
1C
0C
ENDCHAR

STARTCHAR char41
ENCODING 41
SWIDTH 40 0
DWIDTH 8 0
BBX 7 13 1 0
BITMAP
C0
30
38
1C
16
1E
1E
1E
1E
1C
1C
38
60
ENDCHAR

STARTCHAR char42
ENCODING 42
SWIDTH 30 0
DWIDTH 6 0
BBX 6 5 1 7
BITMAP
10
DC
30
28
48
ENDCHAR

STARTCHAR char43
ENCODING 43
SWIDTH 14 0
DWIDTH 13 0
BBX 10 10 3 0
BITMAP
0400
0400
0400
0400
FFC0
0400
0400
0400
0400
0400
ENDCHAR

STARTCHAR char44
ENCODING 44
SWIDTH 30 0
DWIDTH 6 0
BBX 4 6 1 -2
BITMAP
20
70
90
F0
30
60
ENDCHAR

STARTCHAR char45
ENCODING 45
SWIDTH 45 0
DWIDTH 9 0
BBX 7 1 2 5
BITMAP
FE
ENDCHAR

STARTCHAR char46
ENCODING 46
SWIDTH 30 0
DWIDTH 6 0
BBX 4 4 1 0
BITMAP
20
70
F0
70
ENDCHAR

STARTCHAR char47
ENCODING 47
SWIDTH 4 0
DWIDTH 11 0
BBX 10 12 2 0
BITMAP
0080
0080
0100
0200
0400
0400
0800
1000
2000
2000
4000
8000
ENDCHAR

STARTCHAR char48
ENCODING 48
SWIDTH 39 0
DWIDTH 18 0
BBX 14 12 4 0
BITMAP
1FE0
3878
7858
584C
F87C
F87C
9844
F87C
787C
7878
3C50
0FE0
ENDCHAR

STARTCHAR char49
ENCODING 49
SWIDTH 9 0
DWIDTH 12 0
BBX 10 13 3 0
BITMAP
0200
0E00
FE00
3E00
3E00
3E00
3E00
2600
3E00
3E00
3E00
2600
FFC0
ENDCHAR

STARTCHAR char50
ENCODING 50
SWIDTH 29 0
DWIDTH 16 0
BBX 12 12 4 0
BITMAP
7FE0
41F0
E1F0
F1F0
91B0
6260
0780
1810
3F30
7FF0
FFF0
FFF0
ENDCHAR

STARTCHAR char51
ENCODING 51
SWIDTH 34 0
DWIDTH 17 0
BBX 14 12 3 0
BITMAP
3FF0
F878
B878
5858
3070
07E0
0058
7878
E87C
B87C
5058
3FE0
ENDCHAR

STARTCHAR char52
ENCODING 52
SWIDTH 34 0
DWIDTH 17 0
BBX 14 13 3 0
BITMAP
0020
0060
00E0
03E0
05E0
09E0
11E0
2120
41E0
FFFC
01E0
0120
0FFC
ENDCHAR

STARTCHAR char53
ENCODING 53
SWIDTH 29 0
DWIDTH 16 0
BBX 14 13 3 0
BITMAP
301C
3FFC
4078
7F80
4000
4FC0
70F0
0098
70FC
F07C
906C
6098
3FE0
ENDCHAR

STARTCHAR char54
ENCODING 54
SWIDTH 34 0
DWIDTH 17 0
BBX 14 12 4 0
BITMAP
3FF8
78B8
7888
F870
FFE0
F878
984C
F87C
787C
787C
3C58
0FF0
ENDCHAR

STARTCHAR char55
ENCODING 55
SWIDTH 24 0
DWIDTH 15 0
BBX 13 12 4 0
BITMAP
FFF8
FFF0
8060
FFC0
8040
0080
0380
0700
0F00
1F00
2200
3E00
ENDCHAR

STARTCHAR char56
ENCODING 56
SWIDTH 34 0
DWIDTH 17 0
BBX 14 12 4 0
BITMAP
3FF0
7018
FE08
9F18
7FE0
23F0
7C38
83FC
807C
803C
4038
3FE0
ENDCHAR

STARTCHAR char57
ENCODING 57
SWIDTH 34 0
DWIDTH 17 0
BBX 13 12 4 0
BITMAP
3FC0
70F0
F0F8
F0F8
B0F8
50F8
2988
1E78
7878
78F0
48A0
3FC0
ENDCHAR

STARTCHAR char58
ENCODING 58
SWIDTH 35 0
DWIDTH 7 0
BBX 4 9 3 0
BITMAP
60
F0
F0
60
00
00
F0
90
70
ENDCHAR

STARTCHAR char59
ENCODING 59
SWIDTH 35 0
DWIDTH 7 0
BBX 4 11 3 -2
BITMAP
60
F0
F0
60
00
00
F0
B0
D0
30
60
ENDCHAR

STARTCHAR char60
ENCODING 60
SWIDTH 9 0
DWIDTH 12 0
BBX 9 9 1 0
BITMAP
0080
0700
1C00
7000
8000
6000
1C00
0700
0180
ENDCHAR

STARTCHAR char61
ENCODING 61
SWIDTH 14 0
DWIDTH 13 0
BBX 12 4 2 3
BITMAP
FFF0
0000
0000
FFF0
ENDCHAR

STARTCHAR char62
ENCODING 62
SWIDTH 9 0
DWIDTH 12 0
BBX 9 9 1 0
BITMAP
8000
6000
1C00
0700
0180
0700
1C00
7000
8000
ENDCHAR

STARTCHAR char63
ENCODING 63
SWIDTH 9 0
DWIDTH 12 0
BBX 10 12 2 0
BITMAP
7F80
E280
B1C0
76C0
2FC0
0F80
0E00
0800
0800
1C00
1400
1C00
ENDCHAR

STARTCHAR char64
ENCODING 64
SWIDTH 44 0
DWIDTH 19 0
BBX 12 13 3 0
BITMAP
0F80
30C0
4020
4F50
9990
B090
B090
A190
B320
9DC0
4020
2040
1F80
ENDCHAR

STARTCHAR char65
ENCODING 65
SWIDTH 49 0
DWIDTH 20 0
BBX 19 12 3 0
BITMAP
004000
00E000
00E000
017000
02F000
02B800
047C00
044400
0FFE00
083E00
381F00
FE7FC0
ENDCHAR

STARTCHAR char66
ENCODING 66
SWIDTH 49 0
DWIDTH 20 0
BBX 16 12 4 0
BITMAP
FFFE
3E1E
3E1F
3E1B
3E16
23EC
3E3E
3E1F
3E1F
3E1F
3E12
7FFC
ENDCHAR

STARTCHAR char67
ENCODING 67
SWIDTH 39 0
DWIDTH 18 0
BBX 15 12 4 0
BITMAP
1FFC
3C0C
7C04
9804
F804
F800
9800
F800
7804
7C04
3E18
0FE0
ENDCHAR

STARTCHAR char68
ENCODING 68
SWIDTH 3 0
DWIDTH 21 0
BBX 18 12 4 0
BITMAP
FFFF00
1E0F80
1E0F80
1E0FC0
1E0FC0
1E0FC0
1208C0
1E0FC0
1E0F80
1E0F80
120E00
7FF800
ENDCHAR

STARTCHAR char69
ENCODING 69
SWIDTH 44 0
DWIDTH 19 0
BBX 16 12 4 0
BITMAP
FFFE
3E06
3E02
3E22
3E20
3FE0
2660
3E21
3E03
3E07
3E0F
FFFF
ENDCHAR

STARTCHAR char70
ENCODING 70
SWIDTH 39 0
DWIDTH 18 0
BBX 15 12 4 0
BITMAP
3FFE
3E0E
3E02
3E22
3E60
3FE0
2660
3E20
3E00
3E00
3E00
FF80
ENDCHAR

STARTCHAR char71
ENCODING 71
SWIDTH 3 0
DWIDTH 21 0
BBX 19 12 4 0
BITMAP
1FFE00
3C0E00
7C0600
7C0200
FC0000
FC0000
8C7FE0
FC1F00
7C1F00
3C1100
161F00
0FEF00
ENDCHAR

STARTCHAR char72
ENCODING 72
SWIDTH 13 0
DWIDTH 23 0
BBX 20 12 5 0
BITMAP
3E0FF0
3E0F00
3E0F00
3E0F00
3E0900
3FFF00
220F00
3E0F00
3E0F00
3E0F00
220900
FFBFE0
ENDCHAR

STARTCHAR char73
ENCODING 73
SWIDTH 9 0
DWIDTH 12 0
BBX 10 12 3 0
BITMAP
3F80
3E00
3E00
3E00
3E00
2200
3E00
3E00
3E00
3E00
3E00
FF00
ENDCHAR

STARTCHAR char74
ENCODING 74
SWIDTH 24 0
DWIDTH 15 0
BBX 13 12 3 0
BITMAP
07F8
07C0
07C0
07C0
07C0
0440
07C0
67C0
97C0
F7C0
E680
7F00
ENDCHAR

STARTCHAR char75
ENCODING 75
SWIDTH 13 0
DWIDTH 23 0
BBX 22 12 4 0
BITMAP
7F1FF8
1E0700
1E0400
1E0800
1E1800
1E7C00
13C600
1E3E00
1E1F00
1E0F80
1208C0
FFDFFC
ENDCHAR

STARTCHAR char76
ENCODING 76
SWIDTH 44 0
DWIDTH 19 0
BBX 15 12 4 0
BITMAP
FFC0
3E00
3E00
3E00
3E00
2600
3E00
3E02
3E02
3E06
260E
7FFE
ENDCHAR

STARTCHAR char77
ENCODING 77
SWIDTH 29 0
DWIDTH 26 0
BBX 23 12 5 0
BITMAP
FE01FE
1702F0
1F83F0
1B85F0
15C5F0
13E5F0
126910
11F1F0
11F1F0
10E1F0
3061F0
FC43FC
ENDCHAR

STARTCHAR char78
ENCODING 78
SWIDTH 3 0
DWIDTH 21 0
BBX 18 12 4 0
BITMAP
FF0FC0
1D8200
17C200
166200
11F200
10BA00
104E00
103E00
101E00
100E00
300600
FC0200
ENDCHAR

STARTCHAR char79
ENCODING 79
SWIDTH 3 0
DWIDTH 21 0
BBX 17 12 5 0
BITMAP
3FFC00
7C1E00
781F00
F81F80
F81F80
981180
F81F80
F81F80
F81F00
4C1B00
341600
0FF800
ENDCHAR

STARTCHAR char80
ENCODING 80
SWIDTH 49 0
DWIDTH 20 0
BBX 17 12 4 0
BITMAP
FFFF00
3E0F00
3E0F80
3E0F80
3E0D80
221300
3FFC00
3E0000
3E0000
3E0000
220000
FFC000
ENDCHAR

STARTCHAR char81
ENCODING 81
SWIDTH 3 0
DWIDTH 21 0
BBX 17 14 5 -2
BITMAP
3FFC00
7C1E00
781F00
F81F80
F81F80
F81F80
981180
F87F80
78FF00
7D7F80
347E80
0FFB80
000B00
000E00
ENDCHAR

STARTCHAR char82
ENCODING 82
SWIDTH 49 0
DWIDTH 20 0
BBX 17 12 4 0
BITMAP
3FFE00
3E1F00
3E1F00
3E1F00
3E3200
3FEC00
22B800
3E7C00
3E7C00
3E3C00
222E00
FF1F80
ENDCHAR

STARTCHAR char83
ENCODING 83
SWIDTH 44 0
DWIDTH 19 0
BBX 15 12 5 0
BITMAP
7FE8
C018
E008
BC08
FFF8
47FC
380C
47FE
403E
600E
FC0C
C3F8
ENDCHAR

STARTCHAR char84
ENCODING 84
SWIDTH 44 0
DWIDTH 19 0
BBX 16 12 3 0
BITMAP
FFFF
A3E3
E3E1
C3E1
83E1
03E0
0220
03E0
03E0
03E0
0220
0FF8
ENDCHAR

STARTCHAR char85
ENCODING 85
SWIDTH 49 0
DWIDTH 20 0
BBX 17 12 4 0
BITMAP
FF9F80
3E0200
3E0200
3E0200
3E0200
220200
3E0200
3E0200
3E0200
260200
1A0C00
07F000
ENDCHAR

STARTCHAR char86
ENCODING 86
SWIDTH 49 0
DWIDTH 20 0
BBX 15 12 5 0
BITMAP
FF0E
7C0C
5E08
2E08
1708
0F90
09A0
07E0
0440
0380
0180
0180
ENDCHAR

STARTCHAR char87
ENCODING 87
SWIDTH 44 0
DWIDTH 29 0
BBX 26 12 5 0
BITMAP
EFBF8FC0
2F0B8300
1707C200
0F8DC200
0B8BE400
04D22400
03D1F800
02617800
01C0B000
01C0D000
00C06000
00806000
ENDCHAR

STARTCHAR char88
ENCODING 88
SWIDTH 3 0
DWIDTH 21 0
BBX 19 12 3 0
BITMAP
1FEF00
0F8600
0BCC00
05E800
02F000
011800
00F800
017C00
023E00
043F00
0C1F80
7F1FE0
ENDCHAR

STARTCHAR char89
ENCODING 89
SWIDTH 49 0
DWIDTH 20 0
BBX 16 12 5 0
BITMAP
FF3F
5C0C
2E08
1F10
1710
09A0
0FC0
07C0
07C0
07C0
07C0
1FE0
ENDCHAR

STARTCHAR char90
ENCODING 90
SWIDTH 34 0
DWIDTH 17 0
BBX 14 12 3 0
BITMAP
7FFC
70FC
60D8
41B0
0360
07E0
08C0
1F84
1F0C
3A14
463C
FFFC
ENDCHAR

STARTCHAR char91
ENCODING 91
SWIDTH 50 0
DWIDTH 10 0
BBX 6 12 4 0
BITMAP
FC
E0
E0
E0
E0
A0
E0
E0
E0
E0
A0
FC
ENDCHAR

STARTCHAR char92
ENCODING 92
SWIDTH 25 0
DWIDTH 5 0
BBX 5 13 0 0
BITMAP
80
80
40
40
40
20
20
20
10
10
10
08
08
ENDCHAR

STARTCHAR char93
ENCODING 93
SWIDTH 50 0
DWIDTH 10 0
BBX 4 12 4 0
BITMAP
F0
F0
F0
F0
F0
F0
90
F0
F0
F0
90
F0
ENDCHAR

STARTCHAR char94
ENCODING 94
SWIDTH 0 0
DWIDTH 0 0
BBX 7 4 -3 13
BITMAP
38
5C
54
8E
ENDCHAR

STARTCHAR char95
ENCODING 95
SWIDTH 4 0
DWIDTH 11 0
BBX 10 1 0 -2
BITMAP
FFC0
ENDCHAR

STARTCHAR char96
ENCODING 96
SWIDTH 0 0
DWIDTH 0 0
BBX 4 3 -3 11
BITMAP
60
30
10
ENDCHAR

STARTCHAR char97
ENCODING 97
SWIDTH 34 0
DWIDTH 17 0
BBX 15 10 3 0
BITMAP
0100
0300
0580
06C0
09C0
0920
1FF0
10F0
30F8
FDFE
ENDCHAR

STARTCHAR char98
ENCODING 98
SWIDTH 34 0
DWIDTH 17 0
BBX 14 10 3 0
BITMAP
7FF8
1C58
1C38
3C48
3FB0
2458
3C7C
3C7C
3C78
3FF0
ENDCHAR

STARTCHAR char99
ENCODING 99
SWIDTH 24 0
DWIDTH 15 0
BBX 12 10 3 0
BITMAP
1FF0
7830
5810
F010
F000
F000
F010
7010
3820
1FC0
ENDCHAR

STARTCHAR char100
ENCODING 100
SWIDTH 39 0
DWIDTH 18 0
BBX 14 10 4 0
BITMAP
3FF0
2828
3838
383C
2824
383C
383C
3838
2850
FFE0
ENDCHAR

STARTCHAR char101
ENCODING 101
SWIDTH 29 0
DWIDTH 16 0
BBX 13 10 3 0
BITMAP
FFF8
3C18
3C48
3C40
3FC0
2440
3C48
3C08
3C38
3FF8
ENDCHAR

STARTCHAR char102
ENCODING 102
SWIDTH 24 0
DWIDTH 15 0
BBX 13 10 3 0
BITMAP
3FF8
3C18
3C48
3C40
3FC0
24C0
3C40
3C00
3C00
7F00
ENDCHAR

STARTCHAR char103
ENCODING 103
SWIDTH 34 0
DWIDTH 17 0
BBX 15 10 4 0
BITMAP
3FF0
7870
F020
F000
9000
F1F8
F058
7070
7870
1FF8
ENDCHAR

STARTCHAR char104
ENCODING 104
SWIDTH 44 0
DWIDTH 19 0
BBX 16 10 4 0
BITMAP
FFFF
3C3C
3C3C
3C3C
27E4
3C3C
3C3C
3C3C
2424
FFFF
ENDCHAR

STARTCHAR char105
ENCODING 105
SWIDTH 50 0
DWIDTH 10 0
BBX 9 10 2 0
BITMAP
FF80
2400
3C00
3C00
2400
3C00
3C00
3C00
2400
FF80
ENDCHAR

STARTCHAR char106
ENCODING 106
SWIDTH 9 0
DWIDTH 12 0
BBX 11 10 2 0
BITMAP
07E0
0480
0780
0780
0480
0780
7780
F780
7700
7F00
ENDCHAR

STARTCHAR char107
ENCODING 107
SWIDTH 44 0
DWIDTH 19 0
BBX 16 10 4 0
BITMAP
FF7F
3C30
3C20
3C40
25E0
3FF0
3CF0
3C78
242C
FF7F
ENDCHAR

STARTCHAR char108
ENCODING 108
SWIDTH 24 0
DWIDTH 15 0
BBX 13 10 3 0
BITMAP
3F00
3C00
3C00
3C00
2400
3C00
3C08
3C08
2418
FFF8
ENDCHAR

STARTCHAR char109
ENCODING 109
SWIDTH 8 0
DWIDTH 22 0
BBX 19 10 4 0
BITMAP
3C07E0
360B80
2F0F80
2B1780
259480
27E780
23C780
21C780
214780
F88FC0
ENDCHAR

STARTCHAR char110
ENCODING 110
SWIDTH 34 0
DWIDTH 17 0
BBX 15 10 3 0
BITMAP
FE3C
1708
1C88
13C8
1168
1098
1078
1038
3818
7808
ENDCHAR

STARTCHAR char111
ENCODING 111
SWIDTH 34 0
DWIDTH 17 0
BBX 14 10 4 0
BITMAP
3FE0
7878
9078
F07C
F044
907C
F07C
7878
2850
1FE0
ENDCHAR

STARTCHAR char112
ENCODING 112
SWIDTH 34 0
DWIDTH 17 0
BBX 14 10 3 0
BITMAP
3FF8
3C3C
3C3C
3C34
2428
3FF0
3C00
3C00
2400
FF80
ENDCHAR

STARTCHAR char113
ENCODING 113
SWIDTH 34 0
DWIDTH 17 0
BBX 15 11 4 -1
BITMAP
3FE0
4858
F878
F87C
9844
F87C
F9FC
7BF8
38F2
1FFC
0038
ENDCHAR

STARTCHAR char114
ENCODING 114
SWIDTH 34 0
DWIDTH 17 0
BBX 15 10 3 0
BITMAP
3FF0
3C78
3C68
3DF8
2690
3DE0
3CE0
3CF0
2450
3F7E
ENDCHAR

STARTCHAR char115
ENCODING 115
SWIDTH 29 0
DWIDTH 16 0
BBX 13 10 4 0
BITMAP
7FE0
C020
E020
FF80
DFE0
3FF8
43F8
4038
E030
5FE0
ENDCHAR

STARTCHAR char116
ENCODING 116
SWIDTH 24 0
DWIDTH 15 0
BBX 13 10 3 0
BITMAP
FFF8
C718
8708
8F08
0900
0F00
0F00
0F00
0F00
0FE0
ENDCHAR

STARTCHAR char117
ENCODING 117
SWIDTH 34 0
DWIDTH 17 0
BBX 15 10 3 0
BITMAP
FF1E
2408
3C08
3C08
2408
3C08
3C08
3C08
1410
0FE0
ENDCHAR

STARTCHAR char118
ENCODING 118
SWIDTH 34 0
DWIDTH 17 0
BBX 15 10 3 0
BITMAP
FF1C
2C18
3610
0F10
0B20
07A0
04C0
0380
0280
0380
ENDCHAR

STARTCHAR char119
ENCODING 119
SWIDTH 18 0
DWIDTH 24 0
BBX 22 10 4 0
BITMAP
FFFEFC
2C3C30
1E2E20
165620
094F40
074940
078780
030700
030300
010100
ENDCHAR

STARTCHAR char120
ENCODING 120
SWIDTH 34 0
DWIDTH 17 0
BBX 16 10 3 0
BITMAP
3E18
3730
0B60
0780
04C0
03E0
05F0
08F8
384C
FEFF
ENDCHAR

STARTCHAR char121
ENCODING 121
SWIDTH 34 0
DWIDTH 17 0
BBX 15 10 3 0
BITMAP
7C1E
2E18
1630
0F20
09C0
0780
0780
0780
0480
1FF0
ENDCHAR

STARTCHAR char122
ENCODING 122
SWIDTH 19 0
DWIDTH 14 0
BBX 11 10 3 0
BITMAP
FFE0
E260
83C0
0780
0980
1F00
3E20
7C60
88E0
FFE0
ENDCHAR

STARTCHAR char123
ENCODING 123
SWIDTH 30 0
DWIDTH 6 0
BBX 4 15 1 -3
BITMAP
70
60
60
60
40
40
40
80
40
40
60
40
40
40
30
ENDCHAR

STARTCHAR char124
ENCODING 124
SWIDTH 25 0
DWIDTH 5 0
BBX 1 13 2 0
BITMAP
80
80
80
80
80
80
80
80
80
80
80
80
80
ENDCHAR

STARTCHAR char125
ENCODING 125
SWIDTH 30 0
DWIDTH 6 0
BBX 4 15 1 -3
BITMAP
C0
20
20
20
20
20
20
10
20
20
60
20
20
20
C0
ENDCHAR

STARTCHAR char126
ENCODING 126
SWIDTH 0 0
DWIDTH 0 0
BBX 10 4 -5 13
BITMAP
3040
6C40
9F80
8300
ENDCHAR

STARTCHAR char128
ENCODING 128
SWIDTH 39 0
DWIDTH 18 0
BBX 15 12 4 0
BITMAP
1FFC
3C0C
7C04
F804
F804
F800
9800
F800
7804
7C04
3E18
0FE0
ENDCHAR

STARTCHAR char130
ENCODING 130
SWIDTH 30 0
DWIDTH 6 0
BBX 4 6 1 -2
BITMAP
20
70
90
F0
30
60
ENDCHAR

STARTCHAR char131
ENCODING 131
SWIDTH 0 0
DWIDTH 0 0
BBX 7 4 -3 13
BITMAP
38
5C
54
8E
ENDCHAR

STARTCHAR char132
ENCODING 132
SWIDTH 50 0
DWIDTH 10 0
BBX 8 5 2 -2
BITMAP
46
E7
E5
23
46
ENDCHAR

STARTCHAR char133
ENCODING 133
SWIDTH 44 0
DWIDTH 19 0
BBX 14 2 2 0
BITMAP
C30C
C30C
ENDCHAR

STARTCHAR char134
ENCODING 134
SWIDTH 9 0
DWIDTH 12 0
BBX 9 9 3 2
BITMAP
3E00
1C00
8880
C980
FF80
C980
8880
1C00
3E00
ENDCHAR

STARTCHAR char136
ENCODING 136
SWIDTH 0 0
DWIDTH 0 0
BBX 5 3 -2 11
BITMAP
70
B0
B8
ENDCHAR

STARTCHAR char139
ENCODING 139
SWIDTH 30 0
DWIDTH 6 0
BBX 2 6 2 2
BITMAP
40
40
80
80
C0
40
ENDCHAR

STARTCHAR char140
ENCODING 140
SWIDTH 49 0
DWIDTH 30 0
BBX 25 12 6 0
BITMAP
1FFFFF80
340F8380
7C0F8080
7C0F8880
FC0F9800
FC0FF800
8C099800
FC0F8880
7C0F8080
3C0F8180
1E0F8F80
07FFFF80
ENDCHAR

STARTCHAR char145
ENCODING 145
SWIDTH 25 0
DWIDTH 5 0
BBX 4 4 1 8
BITMAP
40
A0
D0
60
ENDCHAR

STARTCHAR char146
ENCODING 146
SWIDTH 25 0
DWIDTH 5 0
BBX 4 5 1 8
BITMAP
60
F0
D0
30
60
ENDCHAR

STARTCHAR char147
ENCODING 147
SWIDTH 50 0
DWIDTH 10 0
BBX 8 4 2 8
BITMAP
44
BA
FF
77
ENDCHAR

STARTCHAR char148
ENCODING 148
SWIDTH 50 0
DWIDTH 10 0
BBX 8 5 2 8
BITMAP
66
FF
5F
32
66
ENDCHAR

STARTCHAR char149
ENCODING 149
SWIDTH 30 0
DWIDTH 6 0
BBX 5 5 0 4
BITMAP
70
F8
F8
F8
70
ENDCHAR

STARTCHAR char150
ENCODING 150
SWIDTH 39 0
DWIDTH 18 0
BBX 14 1 4 5
BITMAP
FFFC
ENDCHAR

STARTCHAR char151
ENCODING 151
SWIDTH 14 0
DWIDTH 13 0
BBX 12 1 2 5
BITMAP
FFF0
ENDCHAR

STARTCHAR char152
ENCODING 152
SWIDTH 0 0
DWIDTH 0 0
BBX 8 3 -4 11
BITMAP
71
DD
BE
ENDCHAR

STARTCHAR char153
ENCODING 153
SWIDTH 34 0
DWIDTH 27 0
BBX 23 10 5 8
BITMAP
FF981C
989838
181C38
181438
181638
181258
181358
181398
181198
1C393C
ENDCHAR

STARTCHAR char155
ENCODING 155
SWIDTH 30 0
DWIDTH 6 0
BBX 2 6 2 2
BITMAP
80
80
40
40
C0
80
ENDCHAR

STARTCHAR char156
ENCODING 156
SWIDTH 23 0
DWIDTH 25 0
BBX 21 10 5 0
BITMAP
1FFFF0
683C18
783C48
F03C40
9027C0
F03CC0
F03C48
783C08
283C38
1FFFF8
ENDCHAR

STARTCHAR char159
ENCODING 159
SWIDTH 49 0
DWIDTH 20 0
BBX 16 17 5 0
BITMAP
0440
1AE0
0CE0
0000
0000
FF3F
5C0C
3E08
2F10
1710
09A0
0FC0
07C0
07C0
07C0
07C0
3FE0
ENDCHAR

STARTCHAR char160
ENCODING 160
SWIDTH 29 0
DWIDTH 16 0
BBX 0 0 0 0
BITMAP
ENDCHAR

STARTCHAR char161
ENCODING 161
SWIDTH 35 0
DWIDTH 7 0
BBX 4 12 2 0
BITMAP
70
90
60
40
40
60
60
F0
F0
F0
90
60
ENDCHAR

STARTCHAR char162
ENCODING 162
SWIDTH 24 0
DWIDTH 15 0
BBX 13 14 3 -2
BITMAP
0100
0700
3DF0
7930
5110
F110
F110
F100
F110
7110
3920
1FC0
0100
0100
ENDCHAR

STARTCHAR char163
ENCODING 163
SWIDTH 39 0
DWIDTH 18 0
BBX 16 12 3 0
BITMAP
0FFE
0F1F
1E17
120B
1E0E
7FF8
1200
1E01
1E03
1E07
1E0F
FFFF
ENDCHAR

STARTCHAR char164
ENCODING 164
SWIDTH 0 0
DWIDTH 0 0
BBX 4 4 -1 13
BITMAP
70
A0
C0
80
ENDCHAR

STARTCHAR char165
ENCODING 165
SWIDTH 0 0
DWIDTH 0 0
BBX 6 4 -3 13
BITMAP
E4
74
58
78
ENDCHAR

STARTCHAR char167
ENCODING 167
SWIDTH 24 0
DWIDTH 15 0
BBX 12 19 4 -5
BITMAP
0040
1E40
61C0
C040
FC40
FF80
BFC0
70E0
4F70
C090
F060
FFE0
87E0
7870
87B0
8050
C060
F0C0
8F00
ENDCHAR

STARTCHAR char168
ENCODING 168
SWIDTH 0 0
DWIDTH 0 0
BBX 7 3 -3 11
BITMAP
EC
AC
76
ENDCHAR

STARTCHAR char169
ENCODING 169
SWIDTH 18 0
DWIDTH 24 0
BBX 19 18 5 0
BITMAP
03F800
0E0600
180100
300080
60F440
430C40
C20420
860020
860020
860020
860020
860020
430440
619840
20F080
180100
0C0600
03F800
ENDCHAR

STARTCHAR char170
ENCODING 170
SWIDTH 0 0
DWIDTH 0 0
BBX 8 3 -4 14
BITMAP
44
EF
EE
ENDCHAR

STARTCHAR char171
ENCODING 171
SWIDTH 45 0
DWIDTH 9 0
BBX 7 6 2 3
BITMAP
22
44
88
48
24
22
ENDCHAR

STARTCHAR char172
ENCODING 172
SWIDTH 3 0
DWIDTH 21 0
BBX 18 8 4 0
BITMAP
FFFFC0
FFFFC0
000040
000040
000040
000040
000040
000040
ENDCHAR

STARTCHAR char174
ENCODING 174
SWIDTH 18 0
DWIDTH 24 0
BBX 19 18 5 0
BITMAP
03F800
0E0600
180300
37F880
631CC0
430C40
C30C20
831C20
83E020
837020
833020
831820
430C40
47CE40
200080
100180
0C0600
03FC00
ENDCHAR

STARTCHAR char176
ENCODING 176
SWIDTH 9 0
DWIDTH 12 0
BBX 8 8 3 10
BITMAP
3E
41
81
81
81
41
22
1C
ENDCHAR

STARTCHAR char177
ENCODING 177
SWIDTH 29 0
DWIDTH 16 0
BBX 14 17 3 0
BITMAP
0100
0100
0100
0100
0100
0100
FFFC
0100
0100
0100
0100
0100
0100
0100
0000
0000
FFFC
ENDCHAR

STARTCHAR char180
ENCODING 180
SWIDTH 0 0
DWIDTH 0 0
BBX 4 3 -1 11
BITMAP
60
40
80
ENDCHAR

STARTCHAR char182
ENCODING 182
SWIDTH 14 0
DWIDTH 13 0
BBX 8 15 2 -3
BITMAP
7F
E2
E2
E2
E2
62
22
22
22
22
22
22
22
22
22
ENDCHAR

STARTCHAR char183
ENCODING 183
SWIDTH 25 0
DWIDTH 5 0
BBX 2 2 2 4
BITMAP
C0
C0
ENDCHAR

STARTCHAR char184
ENCODING 184
SWIDTH 0 0
DWIDTH 0 0
BBX 3 4 -1 -4
BITMAP
E0
E0
A0
40
ENDCHAR

STARTCHAR char186
ENCODING 186
SWIDTH 0 0
DWIDTH 0 0
BBX 10 4 -5 13
BITMAP
3040
6C40
9F80
8300
ENDCHAR

STARTCHAR char187
ENCODING 187
SWIDTH 45 0
DWIDTH 9 0
BBX 7 6 2 3
BITMAP
48
44
22
12
64
88
ENDCHAR

STARTCHAR char191
ENCODING 191
SWIDTH 9 0
DWIDTH 12 0
BBX 10 13 2 0
BITMAP
0600
0F00
0B00
0600
0000
0400
3C00
6400
DD80
F240
A1C0
7080
1F00
ENDCHAR

STARTCHAR char192
ENCODING 192
SWIDTH 49 0
DWIDTH 20 0
BBX 19 17 3 0
BITMAP
03C000
01C000
004000
004000
004000
00C000
00E000
01F000
017000
02F800
02B800
047C00
044400
0FFE00
083E00
381F00
FE7FC0
ENDCHAR

STARTCHAR char193
ENCODING 193
SWIDTH 49 0
DWIDTH 20 0
BBX 19 17 3 0
BITMAP
007000
006000
004000
008000
004000
00C000
00E000
01F000
017000
02F800
02B800
047C00
044400
0FFE00
083E00
381F00
FE7FC0
ENDCHAR

STARTCHAR char194
ENCODING 194
SWIDTH 49 0
DWIDTH 20 0
BBX 19 17 3 0
BITMAP
00E000
017000
015000
013800
004000
00C000
00E000
01F000
017000
02F800
02B800
047C00
07C400
0C3E00
083E00
381F00
FE7FC0
ENDCHAR

STARTCHAR char195
ENCODING 195
SWIDTH 49 0
DWIDTH 20 0
BBX 19 17 3 0
BITMAP
010000
07E400
04F800
043000
004000
00C000
00E000
01F000
017000
02F800
02B800
047C00
07C400
0C3E00
083E00
381F00
FE7FC0
ENDCHAR

STARTCHAR char196
ENCODING 196
SWIDTH 49 0
DWIDTH 20 0
BBX 19 17 3 0
BITMAP
011000
03B800
02A800
011000
004000
00C000
00E000
01F000
017000
02F800
02B800
047C00
07C400
0C3E00
183E00
381F00
FE7FC0
ENDCHAR

STARTCHAR char197
ENCODING 197
SWIDTH 49 0
DWIDTH 20 0
BBX 19 17 3 0
BITMAP
00C000
012000
012000
00C000
004000
00C000
00E000
01F000
013000
02F800
02F800
047C00
047C00
0FE600
083E00
383F00
FE7FC0
ENDCHAR

STARTCHAR char198
ENCODING 198
SWIDTH 44 0
DWIDTH 29 0
BBX 24 12 5 0
BITMAP
003FFF
007F07
005F01
009F11
011F30
021FF0
041330
07FF11
181F01
101F03
301307
FE7FFF
ENDCHAR

STARTCHAR char199
ENCODING 199
SWIDTH 39 0
DWIDTH 18 0
BBX 15 17 4 -4
BITMAP
07E4
1C1C
3C0C
6C04
F804
F804
F800
9800
F800
7804
7804
3C08
0F30
03C0
0380
0180
0100
ENDCHAR

STARTCHAR char200
ENCODING 200
SWIDTH 44 0
DWIDTH 19 0
BBX 15 17 4 0
BITMAP
0700
0300
0180
0080
0000
FFFE
3E06
3E02
3E22
3E20
3FE0
2660
3E22
3E02
3E06
3E0E
FFFE
ENDCHAR

STARTCHAR char201
ENCODING 201
SWIDTH 44 0
DWIDTH 19 0
BBX 15 17 4 0
BITMAP
00C0
01C0
0100
0100
0000
FFFE
3E06
3E02
3E22
3E20
3FE0
2660
3E22
3E02
3E06
3E0E
FFFE
ENDCHAR

STARTCHAR char202
ENCODING 202
SWIDTH 44 0
DWIDTH 19 0
BBX 15 17 4 0
BITMAP
01C0
02E0
02A0
04F0
0000
FFFE
3E06
3E02
3E22
3E20
3FE0
2660
3E22
3E02
3E06
3E0E
FFFE
ENDCHAR

STARTCHAR char203
ENCODING 203
SWIDTH 44 0
DWIDTH 19 0
BBX 16 17 4 0
BITMAP
0440
0EB0
0EE0
0000
0000
FFFE
3E06
3E02
3E22
3E20
3FE0
2260
3E21
3E03
3E07
3E0F
FFFF
ENDCHAR

STARTCHAR char204
ENCODING 204
SWIDTH 9 0
DWIDTH 12 0
BBX 10 17 3 0
BITMAP
3800
3800
0C00
0400
0000
3F80
3E00
3E00
3E00
3E00
2200
3E00
3E00
3E00
3E00
3E00
FF00
ENDCHAR

STARTCHAR char205
ENCODING 205
SWIDTH 9 0
DWIDTH 12 0
BBX 10 17 3 0
BITMAP
0E00
0C00
0800
0800
0000
3F80
3E00
3E00
3E00
3E00
2200
3E00
3E00
3E00
3E00
3E00
FF00
ENDCHAR

STARTCHAR char206
ENCODING 206
SWIDTH 9 0
DWIDTH 12 0
BBX 10 17 3 0
BITMAP
0E00
1E00
2500
2700
0000
3F80
3E00
3E00
3E00
3E00
2200
3E00
3E00
3E00
3E00
3E00
FF00
ENDCHAR

STARTCHAR char207
ENCODING 207
SWIDTH 9 0
DWIDTH 12 0
BBX 10 17 3 0
BITMAP
2200
7700
5300
3100
0000
3F80
3E00
3E00
3E00
3E00
3E00
2200
3E00
3E00
3E00
3E00
FF00
ENDCHAR

STARTCHAR char209
ENCODING 209
SWIDTH 3 0
DWIDTH 21 0
BBX 18 17 4 0
BITMAP
030000
07C400
08F800
083000
000000
FF0FC0
1B8200
15C200
12E200
117200
10BA00
104E00
103E00
101E00
100E00
300600
FC0200
ENDCHAR

STARTCHAR char210
ENCODING 210
SWIDTH 3 0
DWIDTH 21 0
BBX 17 17 5 0
BITMAP
070000
028000
018000
008000
000000
3FFC00
7C1E00
681F00
F81F80
F81F80
981180
F81F80
F81F80
F81F00
4C1B00
341600
0FF800
ENDCHAR

STARTCHAR char211
ENCODING 211
SWIDTH 3 0
DWIDTH 21 0
BBX 17 17 5 0
BITMAP
00E000
00C000
018000
010000
000000
3FFC00
7C1E00
681F00
F81F80
F81F80
981180
F81F80
F81F80
F81F00
4C1B00
341600
0FF800
ENDCHAR

STARTCHAR char212
ENCODING 212
SWIDTH 3 0
DWIDTH 21 0
BBX 17 17 5 0
BITMAP
01C000
02E000
02A000
047000
07E000
1C3C00
3C1E00
681F00
F81F00
F81F80
981180
F81F80
F81F80
F81F00
4C1B00
341600
0FF800
ENDCHAR

STARTCHAR char213
ENCODING 213
SWIDTH 3 0
DWIDTH 21 0
BBX 17 17 5 0
BITMAP
060000
0D8800
13F000
106000
07E000
1C3C00
3C1E00
681F00
F81F00
F81F80
981180
F81F80
F81F80
F81F00
4C1B00
341600
0FF800
ENDCHAR

STARTCHAR char214
ENCODING 214
SWIDTH 3 0
DWIDTH 21 0
BBX 18 17 4 0
BITMAP
021000
073800
072800
011000
000000
1FFE00
3E0F00
7C0F80
740FC0
FC0FC0
FC0FC0
8C08C0
7C0FC0
7C0F80
3E0F80
1E0B00
07FC00
ENDCHAR

STARTCHAR char216
ENCODING 216
SWIDTH 3 0
DWIDTH 21 0
BBX 17 14 5 -1
BITMAP
000200
3FFC00
7C1E00
781F00
F87F80
F89F80
F91F80
9A1180
FC1F80
F81F00
7C1F00
3C1600
47F800
400000
ENDCHAR

STARTCHAR char217
ENCODING 217
SWIDTH 49 0
DWIDTH 20 0
BBX 17 17 4 0
BITMAP
078000
038000
008000
008000
000000
FF9F80
3E0200
3E0200
3E0200
3E0200
260200
3E0200
3E0200
3E0200
260200
1A0C00
07F000
ENDCHAR

STARTCHAR char218
ENCODING 218
SWIDTH 49 0
DWIDTH 20 0
BBX 17 17 4 0
BITMAP
00E000
00C000
008000
010000
000000
FF9F80
3E0200
3E0200
3E0200
3E0200
260200
3E0200
3E0200
3E0200
260200
1A0C00
07F000
ENDCHAR

STARTCHAR char219
ENCODING 219
SWIDTH 49 0
DWIDTH 20 0
BBX 17 17 4 0
BITMAP
01C000
01E000
01A000
027000
000000
FF9F80
3E0200
3E0200
3E0200
3E0200
260200
3E0200
3E0200
3E0200
260200
1A0C00
07F000
ENDCHAR

STARTCHAR char220
ENCODING 220
SWIDTH 49 0
DWIDTH 20 0
BBX 17 17 4 0
BITMAP
011000
03B800
03B800
000000
000000
FF9F80
3E0200
3E0200
3E0200
3E0200
260200
3E0200
3E0200
3E0200
260200
1A0C00
07F000
ENDCHAR

STARTCHAR char223
ENCODING 223
SWIDTH 34 0
DWIDTH 27 0
BBX 27 10 2 0
BITMAP
3FF0FFC0
603381C0
F013C040
FFD2FE00
4FF113C0
3FF8FFE0
43F90FE0
603900E0
F01BC060
4FF13F80
ENDCHAR

STARTCHAR char224
ENCODING 224
SWIDTH 34 0
DWIDTH 17 0
BBX 15 14 3 0
BITMAP
0700
0300
0100
0100
0300
0380
0580
0BC0
0AC0
1120
3FF0
20F0
20F8
FDFE
ENDCHAR

STARTCHAR char225
ENCODING 225
SWIDTH 34 0
DWIDTH 17 0
BBX 15 14 3 0
BITMAP
01C0
0100
0100
0100
0300
0380
0580
0BC0
0AC0
1120
3FF0
20F0
20F8
FDFE
ENDCHAR

STARTCHAR char226
ENCODING 226
SWIDTH 34 0
DWIDTH 17 0
BBX 15 14 3 0
BITMAP
0380
05C0
04C0
0100
0300
0380
0580
0BC0
0AC0
1120
1FF0
20F0
20F8
FDFE
ENDCHAR

STARTCHAR char227
ENCODING 227
SWIDTH 34 0
DWIDTH 17 0
BBX 15 14 3 0
BITMAP
0610
1DA0
11C0
0100
0300
0380
0580
0BC0
0AC0
1120
1FF0
20F0
20F8
FDFE
ENDCHAR

STARTCHAR char228
ENCODING 228
SWIDTH 34 0
DWIDTH 17 0
BBX 15 14 3 0
BITMAP
06C0
0AC0
0F60
0100
0300
0380
0580
0BC0
0AC0
1160
1FF0
20F0
20F8
FDFC
ENDCHAR

STARTCHAR char229
ENCODING 229
SWIDTH 34 0
DWIDTH 17 0
BBX 15 14 3 0
BITMAP
0380
0280
0300
0100
0300
0380
0780
05C0
0AC0
0960
1FF0
10F0
30F8
F9FC
ENDCHAR

STARTCHAR char230
ENCODING 230
SWIDTH 18 0
DWIDTH 24 0
BBX 21 10 4 0
BITMAP
007FF8
00BC18
013C88
023480
043F80
042480
0FFC88
103C18
302C78
78FFF8
ENDCHAR

STARTCHAR char231
ENCODING 231
SWIDTH 24 0
DWIDTH 15 0
BBX 13 15 3 -4
BITMAP
0F90
3C70
7830
5810
F010
F000
9000
F010
7810
3C20
0FC0
0200
0700
0300
0200
ENDCHAR

STARTCHAR char232
ENCODING 232
SWIDTH 29 0
DWIDTH 16 0
BBX 13 14 3 0
BITMAP
0600
0200
0100
0000
FFF8
3C18
2408
3C48
3FC0
3CC0
2440
3C08
3C38
3FF8
ENDCHAR

STARTCHAR char233
ENCODING 233
SWIDTH 29 0
DWIDTH 16 0
BBX 13 14 3 0
BITMAP
0180
0100
0200
0000
FFF8
3C18
2408
3C48
3FC0
3CC0
2440
3C08
3C38
3FF8
ENDCHAR

STARTCHAR char234
ENCODING 234
SWIDTH 29 0
DWIDTH 16 0
BBX 13 14 3 0
BITMAP
0380
0580
05C0
0000
FFF8
3C18
2408
3C48
3FC0
3CC0
2440
3C08
2418
FFF8
ENDCHAR

STARTCHAR char235
ENCODING 235
SWIDTH 29 0
DWIDTH 16 0
BBX 13 14 3 0
BITMAP
0DC0
0DC0
04E0
0000
FFF8
3C18
3C48
3C40
3FC0
2440
3C48
3C08
2418
FFF8
ENDCHAR

STARTCHAR char236
ENCODING 236
SWIDTH 50 0
DWIDTH 10 0
BBX 9 14 2 0
BITMAP
3000
1800
0800
0000
FF80
3C00
3C00
3C00
2400
3C00
3C00
3C00
2400
FF80
ENDCHAR

STARTCHAR char237
ENCODING 237
SWIDTH 50 0
DWIDTH 10 0
BBX 9 14 2 0
BITMAP
1800
3000
2000
0000
FF80
3C00
3C00
3C00
2400
3C00
3C00
3C00
2400
FF80
ENDCHAR

STARTCHAR char238
ENCODING 238
SWIDTH 50 0
DWIDTH 10 0
BBX 9 14 2 0
BITMAP
1C00
2C00
4E00
0000
FF80
3C00
3C00
3C00
2400
3C00
3C00
3C00
3C00
FF80
ENDCHAR

STARTCHAR char239
ENCODING 239
SWIDTH 50 0
DWIDTH 10 0
BBX 9 14 2 0
BITMAP
3600
5600
2200
0000
FF80
3C00
3E00
3E00
2200
3C00
3C00
3C00
3C00
FF80
ENDCHAR

STARTCHAR char241
ENCODING 241
SWIDTH 34 0
DWIDTH 17 0
BBX 15 14 3 0
BITMAP
0710
0FB0
09C0
0000
FE3C
1B08
1588
12C8
1168
1098
1078
1038
3818
7808
ENDCHAR

STARTCHAR char242
ENCODING 242
SWIDTH 34 0
DWIDTH 17 0
BBX 14 14 4 0
BITMAP
0E00
0600
0200
0000
3FE0
7878
9048
F07C
F044
907C
F07C
7878
2850
1FE0
ENDCHAR

STARTCHAR char243
ENCODING 243
SWIDTH 34 0
DWIDTH 17 0
BBX 14 14 4 0
BITMAP
0380
0300
0200
0000
3FE0
7878
9048
F07C
F044
907C
F07C
7878
2850
1FE0
ENDCHAR

STARTCHAR char244
ENCODING 244
SWIDTH 34 0
DWIDTH 17 0
BBX 14 14 4 0
BITMAP
0380
0580
05C0
0000
3FE0
4858
F078
F07C
F044
907C
F07C
7878
2850
1FE0
ENDCHAR

STARTCHAR char245
ENCODING 245
SWIDTH 34 0
DWIDTH 17 0
BBX 14 14 4 0
BITMAP
0E20
1F60
1180
0000
3FE0
6878
F078
F07C
F044
907C
F07C
7878
2850
1FE0
ENDCHAR

STARTCHAR char246
ENCODING 246
SWIDTH 34 0
DWIDTH 17 0
BBX 14 14 4 0
BITMAP
0DC0
1D40
0EE0
0F80
38E0
5898
F078
F07C
9044
F07C
F07C
7878
3850
1FE0
ENDCHAR

STARTCHAR char247
ENCODING 247
SWIDTH 29 0
DWIDTH 16 0
BBX 14 10 3 2
BITMAP
0380
0380
0380
0000
FFFC
0000
0000
0380
0380
0380
ENDCHAR

STARTCHAR char248
ENCODING 248
SWIDTH 34 0
DWIDTH 17 0
BBX 14 11 4 -1
BITMAP
3FF0
4898
F078
F1FC
9244
F67C
F87C
7878
2850
DFE0
8000
ENDCHAR

STARTCHAR char249
ENCODING 249
SWIDTH 34 0
DWIDTH 17 0
BBX 15 14 3 0
BITMAP
0700
0300
0100
0000
FF1E
2408
3C08
3C08
2408
3C08
3C08
1C08
1410
0FE0
ENDCHAR

STARTCHAR char250
ENCODING 250
SWIDTH 34 0
DWIDTH 17 0
BBX 15 14 3 0
BITMAP
01C0
0100
0100
0000
FF1E
2408
3C08
3C08
2408
3C08
3C08
1C08
1410
0FE0
ENDCHAR

STARTCHAR char251
ENCODING 251
SWIDTH 34 0
DWIDTH 17 0
BBX 15 14 3 0
BITMAP
0180
07C0
04C0
0000
FF1E
2408
3C08
3C08
2408
3C08
3C08
1C08
1410
0FE0
ENDCHAR

STARTCHAR char252
ENCODING 252
SWIDTH 34 0
DWIDTH 17 0
BBX 15 14 3 0
BITMAP
0760
0560
02E0
0000
FF1E
2408
3C08
3C08
2408
3C08
3C08
1C08
1410
0FE0
ENDCHAR

STARTCHAR char255
ENCODING 255
SWIDTH 34 0
DWIDTH 17 0
BBX 15 14 3 0
BITMAP
06C0
0EC0
06C0
0000
7E1E
2E18
1610
0F20
09C0
0780
0780
0780
0480
1FF0
ENDCHAR
ENDFONT
